<mxfile host="65bd71144e">
    <diagram id="a6-g8YabBJPhMk-ytftc" name="Page-1">
        <mxGraphModel dx="390" dy="273" grid="1" gridSize="10" guides="1" tooltips="1" connect="1" arrows="1" fold="1" page="1" pageScale="1" pageWidth="850" pageHeight="1100" background="#FFFFFF" math="0" shadow="0">
            <root>
                <mxCell id="0"/>
                <mxCell id="1" parent="0"/>
                <mxCell id="2" value="Annual" style="swimlane;fontStyle=1;align=center;verticalAlign=top;childLayout=stackLayout;horizontal=1;startSize=26;horizontalStack=0;resizeParent=1;resizeParentMax=0;resizeLast=0;collapsible=1;marginBottom=0;whiteSpace=wrap;html=1;fontColor=default;fillColor=default;" parent="1" vertex="1">
                    <mxGeometry x="30" y="30" width="160" height="110" as="geometry"/>
                </mxCell>
                <mxCell id="3" value="- lifeSpan: int" style="text;strokeColor=none;fillColor=default;align=left;verticalAlign=top;spacingLeft=4;spacingRight=4;overflow=hidden;rotatable=0;points=[[0,0.5],[1,0.5]];portConstraint=eastwest;whiteSpace=wrap;html=1;fontColor=default;" parent="2" vertex="1">
                    <mxGeometry y="26" width="160" height="26" as="geometry"/>
                </mxCell>
                <mxCell id="4" value="" style="line;strokeWidth=1;fillColor=default;align=left;verticalAlign=middle;spacingTop=-1;spacingLeft=3;spacingRight=3;rotatable=0;labelPosition=right;points=[];portConstraint=eastwest;strokeColor=inherit;fontColor=default;" parent="2" vertex="1">
                    <mxGeometry y="52" width="160" height="8" as="geometry"/>
                </mxCell>
                <mxCell id="5" value="+ getLifeSpan: int&lt;div&gt;+ displayInfo: void&lt;/div&gt;" style="text;strokeColor=none;fillColor=default;align=left;verticalAlign=top;spacingLeft=4;spacingRight=4;overflow=hidden;rotatable=0;points=[[0,0.5],[1,0.5]];portConstraint=eastwest;whiteSpace=wrap;html=1;fontColor=default;" parent="2" vertex="1">
                    <mxGeometry y="60" width="160" height="50" as="geometry"/>
                </mxCell>
                <mxCell id="19" value="Biennial" style="swimlane;fontStyle=1;align=center;verticalAlign=top;childLayout=stackLayout;horizontal=1;startSize=26;horizontalStack=0;resizeParent=1;resizeParentMax=0;resizeLast=0;collapsible=1;marginBottom=0;whiteSpace=wrap;html=1;fontColor=default;fillColor=default;" parent="1" vertex="1">
                    <mxGeometry x="30" y="160" width="160" height="110" as="geometry"/>
                </mxCell>
                <mxCell id="20" value="- lifeSpan: int" style="text;strokeColor=none;fillColor=default;align=left;verticalAlign=top;spacingLeft=4;spacingRight=4;overflow=hidden;rotatable=0;points=[[0,0.5],[1,0.5]];portConstraint=eastwest;whiteSpace=wrap;html=1;fontColor=default;" parent="19" vertex="1">
                    <mxGeometry y="26" width="160" height="26" as="geometry"/>
                </mxCell>
                <mxCell id="21" value="" style="line;strokeWidth=1;fillColor=default;align=left;verticalAlign=middle;spacingTop=-1;spacingLeft=3;spacingRight=3;rotatable=0;labelPosition=right;points=[];portConstraint=eastwest;strokeColor=inherit;fontColor=default;" parent="19" vertex="1">
                    <mxGeometry y="52" width="160" height="8" as="geometry"/>
                </mxCell>
                <mxCell id="22" value="+ getLifeSpan: int&lt;div&gt;+ displayInfo: void&lt;/div&gt;" style="text;strokeColor=none;fillColor=default;align=left;verticalAlign=top;spacingLeft=4;spacingRight=4;overflow=hidden;rotatable=0;points=[[0,0.5],[1,0.5]];portConstraint=eastwest;whiteSpace=wrap;html=1;fontColor=default;" parent="19" vertex="1">
                    <mxGeometry y="60" width="160" height="50" as="geometry"/>
                </mxCell>
                <mxCell id="23" value="Perennial" style="swimlane;fontStyle=1;align=center;verticalAlign=top;childLayout=stackLayout;horizontal=1;startSize=26;horizontalStack=0;resizeParent=1;resizeParentMax=0;resizeLast=0;collapsible=1;marginBottom=0;whiteSpace=wrap;html=1;fontColor=default;fillColor=default;" parent="1" vertex="1">
                    <mxGeometry x="30" y="290" width="160" height="110" as="geometry"/>
                </mxCell>
                <mxCell id="24" value="- lifeSpan: int" style="text;strokeColor=none;fillColor=default;align=left;verticalAlign=top;spacingLeft=4;spacingRight=4;overflow=hidden;rotatable=0;points=[[0,0.5],[1,0.5]];portConstraint=eastwest;whiteSpace=wrap;html=1;fontColor=default;" parent="23" vertex="1">
                    <mxGeometry y="26" width="160" height="26" as="geometry"/>
                </mxCell>
                <mxCell id="25" value="" style="line;strokeWidth=1;fillColor=default;align=left;verticalAlign=middle;spacingTop=-1;spacingLeft=3;spacingRight=3;rotatable=0;labelPosition=right;points=[];portConstraint=eastwest;strokeColor=inherit;fontColor=default;" parent="23" vertex="1">
                    <mxGeometry y="52" width="160" height="8" as="geometry"/>
                </mxCell>
                <mxCell id="26" value="+ getLifeSpan: int&lt;div&gt;+ displayInfo: void&lt;/div&gt;" style="text;strokeColor=none;fillColor=default;align=left;verticalAlign=top;spacingLeft=4;spacingRight=4;overflow=hidden;rotatable=0;points=[[0,0.5],[1,0.5]];portConstraint=eastwest;whiteSpace=wrap;html=1;fontColor=default;" parent="23" vertex="1">
                    <mxGeometry y="60" width="160" height="50" as="geometry"/>
                </mxCell>
                <mxCell id="27" value="Extends" style="endArrow=block;endSize=16;endFill=0;html=1;exitX=0.998;exitY=0.502;exitDx=0;exitDy=0;exitPerimeter=0;entryX=0;entryY=0.5;entryDx=0;entryDy=0;fontColor=default;" parent="1" source="4" target="31" edge="1">
                    <mxGeometry width="160" relative="1" as="geometry">
                        <mxPoint x="200" y="90" as="sourcePoint"/>
                        <mxPoint x="350" y="85" as="targetPoint"/>
                        <Array as="points">
                            <mxPoint x="300" y="86"/>
                            <mxPoint x="300" y="180"/>
                        </Array>
                    </mxGeometry>
                </mxCell>
                <mxCell id="28" value="Extends" style="endArrow=block;endSize=16;endFill=0;html=1;exitX=0.998;exitY=0.502;exitDx=0;exitDy=0;exitPerimeter=0;entryX=0.002;entryY=0.497;entryDx=0;entryDy=0;entryPerimeter=0;fontColor=default;" parent="1" source="21" target="32" edge="1">
                    <mxGeometry width="160" relative="1" as="geometry">
                        <mxPoint x="190" y="214.29000000000002" as="sourcePoint"/>
                        <mxPoint x="400" y="210" as="targetPoint"/>
                    </mxGeometry>
                </mxCell>
                <mxCell id="29" value="Extends" style="endArrow=block;endSize=16;endFill=0;html=1;exitX=0.997;exitY=0.502;exitDx=0;exitDy=0;exitPerimeter=0;entryX=0;entryY=0.5;entryDx=0;entryDy=0;fontColor=default;" parent="1" source="25" target="33" edge="1">
                    <mxGeometry x="-0.0105" width="160" relative="1" as="geometry">
                        <mxPoint x="200" y="340" as="sourcePoint"/>
                        <mxPoint x="350" y="344.29" as="targetPoint"/>
                        <Array as="points">
                            <mxPoint x="300" y="346"/>
                            <mxPoint x="300" y="245"/>
                        </Array>
                        <mxPoint as="offset"/>
                    </mxGeometry>
                </mxCell>
                <mxCell id="30" value="Plant" style="swimlane;fontStyle=1;align=center;verticalAlign=top;childLayout=stackLayout;horizontal=1;startSize=26;horizontalStack=0;resizeParent=1;resizeParentMax=0;resizeLast=0;collapsible=1;marginBottom=0;whiteSpace=wrap;html=1;fontColor=default;fillColor=default;" parent="1" vertex="1">
                    <mxGeometry x="425" y="120" width="240" height="150" as="geometry"/>
                </mxCell>
                <mxCell id="31" value="&lt;font&gt;# farmId: int&lt;/font&gt;&lt;div&gt;&lt;font&gt;# plantId: int&lt;/font&gt;&lt;/div&gt;&lt;div&gt;&lt;font&gt;# plantName: String&lt;br&gt;# waterInterval: int&amp;nbsp;&lt;/font&gt;&lt;/div&gt;" style="text;strokeColor=none;fillColor=default;align=left;verticalAlign=top;spacingLeft=4;spacingRight=4;overflow=hidden;rotatable=0;points=[[0,0.5],[1,0.5]];portConstraint=eastwest;whiteSpace=wrap;html=1;fontColor=default;" parent="30" vertex="1">
                    <mxGeometry y="26" width="240" height="64" as="geometry"/>
                </mxCell>
                <mxCell id="32" value="" style="line;strokeWidth=1;fillColor=default;align=left;verticalAlign=middle;spacingTop=-1;spacingLeft=3;spacingRight=3;rotatable=0;labelPosition=right;points=[];portConstraint=eastwest;strokeColor=inherit;fontColor=default;" parent="30" vertex="1">
                    <mxGeometry y="90" width="240" height="10" as="geometry"/>
                </mxCell>
                <mxCell id="33" value="+ getLifeSpan: int&lt;div&gt;&lt;i&gt;+ displayInfo: void&lt;/i&gt;&lt;/div&gt;" style="text;strokeColor=none;fillColor=default;align=left;verticalAlign=top;spacingLeft=4;spacingRight=4;overflow=hidden;rotatable=0;points=[[0,0.5],[1,0.5]];portConstraint=eastwest;whiteSpace=wrap;html=1;fontColor=default;" parent="30" vertex="1">
                    <mxGeometry y="100" width="240" height="50" as="geometry"/>
                </mxCell>
                <mxCell id="39" value="Farm" style="swimlane;fontStyle=1;align=center;verticalAlign=top;childLayout=stackLayout;horizontal=1;startSize=26;horizontalStack=0;resizeParent=1;resizeParentMax=0;resizeLast=0;collapsible=1;marginBottom=0;whiteSpace=wrap;html=1;fontColor=default;fillColor=default;" parent="1" vertex="1">
                    <mxGeometry x="427" y="530" width="320" height="310" as="geometry"/>
                </mxCell>
                <mxCell id="40" value="- id: int&lt;div&gt;&lt;font&gt;- name: String&lt;/font&gt;&lt;/div&gt;&lt;div&gt;&lt;font&gt;- country: String&lt;/font&gt;&lt;/div&gt;&lt;div&gt;&lt;font&gt;- farmPlants: ArrayList&amp;lt;Plant&amp;gt;&lt;/font&gt;&lt;/div&gt;&lt;div&gt;&lt;font&gt;- farmLogs: ArrayList &amp;lt;FarmLog&amp;gt;&lt;/font&gt;&lt;/div&gt;&lt;div&gt;&lt;div&gt;&lt;br&gt;&lt;/div&gt;&lt;/div&gt;" style="text;strokeColor=none;fillColor=default;align=left;verticalAlign=top;spacingLeft=4;spacingRight=4;overflow=hidden;rotatable=0;points=[[0,0.5],[1,0.5]];portConstraint=eastwest;whiteSpace=wrap;html=1;fontColor=default;" parent="39" vertex="1">
                    <mxGeometry y="26" width="320" height="84" as="geometry"/>
                </mxCell>
                <mxCell id="41" value="" style="line;strokeWidth=1;fillColor=default;align=left;verticalAlign=middle;spacingTop=-1;spacingLeft=3;spacingRight=3;rotatable=0;labelPosition=right;points=[];portConstraint=eastwest;strokeColor=inherit;fontColor=default;" parent="39" vertex="1">
                    <mxGeometry y="110" width="320" height="8" as="geometry"/>
                </mxCell>
                <mxCell id="42" value="+ addPlants(Plant): void&lt;div&gt;+ getPlants(): void&lt;/div&gt;&lt;div&gt;+ isPlantsWatered(ArrayList&amp;lt;Integer&amp;gt;): void&lt;/div&gt;&lt;div&gt;+ getPlantIds: ArrayList&amp;lt;Integer&amp;gt;&lt;/div&gt;&lt;div&gt;&lt;span style=&quot;color: rgb(63, 63, 63);&quot;&gt;+ getPlantSize(): int&lt;/span&gt;&lt;/div&gt;&lt;div&gt;+ addLog(FarmLog): void&lt;/div&gt;&lt;div&gt;+ getLogs(): void&lt;/div&gt;&lt;div&gt;+ getLogSize(): int&lt;/div&gt;&lt;div&gt;+ getId(): int&lt;/div&gt;&lt;div&gt;+ getName(): String&lt;/div&gt;&lt;div&gt;+ getCountry(): String&lt;/div&gt;&lt;div&gt;+ toString: String&lt;/div&gt;&lt;div&gt;&lt;br&gt;&lt;/div&gt;" style="text;strokeColor=none;fillColor=default;align=left;verticalAlign=top;spacingLeft=4;spacingRight=4;overflow=hidden;rotatable=0;points=[[0,0.5],[1,0.5]];portConstraint=eastwest;whiteSpace=wrap;html=1;fontColor=default;" parent="39" vertex="1">
                    <mxGeometry y="118" width="320" height="192" as="geometry"/>
                </mxCell>
                <mxCell id="43" value="Has" style="endArrow=open;html=1;endSize=12;startArrow=diamondThin;startSize=14;startFill=0;edgeStyle=orthogonalEdgeStyle;exitX=0.5;exitY=0;exitDx=0;exitDy=0;entryX=0.503;entryY=0.994;entryDx=0;entryDy=0;entryPerimeter=0;fontColor=default;" parent="1" source="39" target="33" edge="1">
                    <mxGeometry relative="1" as="geometry">
                        <mxPoint x="660" y="280" as="sourcePoint"/>
                        <mxPoint x="500" y="280" as="targetPoint"/>
                    </mxGeometry>
                </mxCell>
                <mxCell id="45" value="*" style="edgeLabel;resizable=0;html=1;align=right;verticalAlign=top;fontColor=default;fillColor=default;" parent="43" connectable="0" vertex="1">
                    <mxGeometry x="1" relative="1" as="geometry">
                        <mxPoint x="14" y="-5" as="offset"/>
                    </mxGeometry>
                </mxCell>
                <mxCell id="50" value="FarmLog" style="swimlane;fontStyle=1;align=center;verticalAlign=top;childLayout=stackLayout;horizontal=1;startSize=26;horizontalStack=0;resizeParent=1;resizeParentMax=0;resizeLast=0;collapsible=1;marginBottom=0;whiteSpace=wrap;html=1;fontColor=default;fillColor=default;" parent="1" vertex="1">
                    <mxGeometry x="33" y="588" width="160" height="230" as="geometry"/>
                </mxCell>
                <mxCell id="51" value="- farmId: int&lt;div&gt;- farmName: String&lt;/div&gt;&lt;div&gt;- farmerName: String&lt;/div&gt;&lt;div&gt;- date: int&lt;/div&gt;&lt;div&gt;- plantId: int&lt;/div&gt;&lt;div&gt;- event: String&lt;/div&gt;" style="text;strokeColor=none;fillColor=default;align=left;verticalAlign=top;spacingLeft=4;spacingRight=4;overflow=hidden;rotatable=0;points=[[0,0.5],[1,0.5]];portConstraint=eastwest;whiteSpace=wrap;html=1;fontColor=default;" parent="50" vertex="1">
                    <mxGeometry y="26" width="160" height="94" as="geometry"/>
                </mxCell>
                <mxCell id="52" value="" style="line;strokeWidth=1;fillColor=default;align=left;verticalAlign=middle;spacingTop=-1;spacingLeft=3;spacingRight=3;rotatable=0;labelPosition=right;points=[];portConstraint=eastwest;strokeColor=inherit;fontColor=default;" parent="50" vertex="1">
                    <mxGeometry y="120" width="160" height="8" as="geometry"/>
                </mxCell>
                <mxCell id="53" value="+ getFarmId(): int&lt;div&gt;+ getFarmName(): String&lt;/div&gt;&lt;div&gt;+ getDate(): int&lt;/div&gt;&lt;div&gt;+ getPlantId(): int&lt;/div&gt;&lt;div&gt;+ getEvent(): String&lt;/div&gt;&lt;div&gt;+ toString(): String&lt;/div&gt;" style="text;strokeColor=none;fillColor=default;align=left;verticalAlign=top;spacingLeft=4;spacingRight=4;overflow=hidden;rotatable=0;points=[[0,0.5],[1,0.5]];portConstraint=eastwest;whiteSpace=wrap;html=1;fontColor=default;" parent="50" vertex="1">
                    <mxGeometry y="128" width="160" height="102" as="geometry"/>
                </mxCell>
                <mxCell id="46" value="Has" style="endArrow=open;html=1;endSize=12;startArrow=diamondThin;startSize=14;startFill=0;edgeStyle=orthogonalEdgeStyle;entryX=0.999;entryY=0.499;entryDx=0;entryDy=0;entryPerimeter=0;exitX=0.003;exitY=0.567;exitDx=0;exitDy=0;exitPerimeter=0;fontColor=default;" parent="1" source="41" target="52" edge="1">
                    <mxGeometry relative="1" as="geometry">
                        <mxPoint x="410" y="590" as="sourcePoint"/>
                        <mxPoint x="150" y="587" as="targetPoint"/>
                    </mxGeometry>
                </mxCell>
                <mxCell id="47" value="*" style="edgeLabel;resizable=0;html=1;align=right;verticalAlign=top;fontColor=default;fillColor=default;" parent="46" connectable="0" vertex="1">
                    <mxGeometry x="1" relative="1" as="geometry">
                        <mxPoint x="7" y="-24" as="offset"/>
                    </mxGeometry>
                </mxCell>
            </root>
        </mxGraphModel>
    </diagram>
</mxfile>